<svg width="20" height="20" viewBox="0 0 20 20" fill="none" xmlns="http://www.w3.org/2000/svg">
<path fill-rule="evenodd" clip-rule="evenodd" d="M16.7491 4.6875V10.7812C16.7491 11.2127 17.0979 11.5625 17.5281 11.5625C17.9584 11.5625 18.3072 11.2127 18.3072 10.7812V4.6875C18.3072 2.10281 16.2103 0 13.633 0H6.466C3.88868 0 1.79186 2.10281 1.79186 4.6875V10.7812C1.79186 11.2127 2.14062 11.5625 2.57088 11.5625C3.00114 11.5625 3.3499 11.2127 3.3499 10.7812V4.6875C3.3499 2.96438 4.74779 1.5625 6.466 1.5625H13.633C15.3512 1.5625 16.7491 2.96438 16.7491 4.6875ZM15.1521 7.1875C15.1521 6.75602 14.8034 6.40625 14.3731 6.40625H13.0488C12.4044 6.40625 11.8802 5.88055 11.8802 5.23438V3.90625C11.8802 3.47477 11.5315 3.125 11.1012 3.125C10.6709 3.125 10.3222 3.47477 10.3222 3.90625V5.23438C10.3222 6.74211 11.5453 7.96875 13.0488 7.96875H14.3731C14.8034 7.96875 15.1521 7.61898 15.1521 7.1875ZM1.40234 15.3195C1.40234 13.9802 2.48885 12.8906 3.82433 12.8906C5.19502 12.8906 6.3102 14.009 6.3102 15.3836C6.3102 16.766 5.18875 17.8906 3.81031 17.8906H2.96039V19.2188C2.96039 19.6502 2.61162 20 2.18137 20C1.75111 20 1.40234 19.6502 1.40234 19.2188V15.3195ZM2.96039 16.3281H3.81031C4.32964 16.3281 4.75215 15.9044 4.75215 15.3836C4.75215 14.8705 4.33595 14.4531 3.82433 14.4531C3.34796 14.4531 2.96039 14.8418 2.96039 15.3195V16.3281ZM17.7619 16.0156H15.5806V15.3195C15.5806 14.8418 15.9681 14.4531 16.4445 14.4531H17.7619C18.1921 14.4531 18.5409 14.1034 18.5409 13.6719C18.5409 13.2404 18.1921 12.8906 17.7619 12.8906H16.4445C15.109 12.8906 14.0225 13.9802 14.0225 15.3195V19.2188C14.0225 19.6502 14.3713 20 14.8016 20C15.2318 20 15.5806 19.6502 15.5806 19.2188V17.5781H17.7619C18.1921 17.5781 18.5409 17.2284 18.5409 16.7969C18.5409 16.3654 18.1921 16.0156 17.7619 16.0156ZM7.71244 14.3609C7.71244 13.5502 8.36947 12.8906 9.17701 12.8906C11.1185 12.8906 12.6982 14.4775 12.6982 16.428V16.4625C12.6982 17.407 12.3322 18.2952 11.6675 18.9632C11.0024 19.6318 10.1179 20 9.17701 20C8.36943 20 7.71244 19.3404 7.71244 18.5297V14.3609ZM10.5646 17.8596C10.9357 17.4865 11.1401 16.9904 11.1401 16.4625V16.4281C11.1401 15.3706 10.3097 14.5046 9.27049 14.4554V18.4353C9.75944 18.4124 10.216 18.21 10.5646 17.8596Z" fill="#20B7DC"/>
</svg>
