<svg width="26" height="26" viewBox="0 0 26 26" fill="none" xmlns="http://www.w3.org/2000/svg">
<path d="M14.5234 7.66797C14.9441 7.66797 15.2852 7.32694 15.2852 6.90625C15.2852 6.48556 14.9441 6.14453 14.5234 6.14453C14.1028 6.14453 13.7617 6.48556 13.7617 6.90625C13.7617 7.32694 14.1028 7.66797 14.5234 7.66797Z" fill="white"/>
<path d="M17.5703 7.66797C17.991 7.66797 18.332 7.32694 18.332 6.90625C18.332 6.48556 17.991 6.14453 17.5703 6.14453C17.1496 6.14453 16.8086 6.48556 16.8086 6.90625C16.8086 7.32694 17.1496 7.66797 17.5703 7.66797Z" fill="white"/>
<path d="M20.6172 7.66797C21.0379 7.66797 21.3789 7.32694 21.3789 6.90625C21.3789 6.48556 21.0379 6.14453 20.6172 6.14453C20.1965 6.14453 19.8555 6.48556 19.8555 6.90625C19.8555 7.32694 20.1965 7.66797 20.6172 7.66797Z" fill="white"/>
<path d="M17.1241 24.4258C18.3781 24.4258 19.3984 23.4007 19.3984 22.1406V19.0938C19.3984 18.7661 19.1889 18.4751 18.8781 18.3713L14.3186 16.8478C14.0954 16.7733 13.8505 16.8061 13.6547 16.9365L11.7157 18.2291C9.63483 17.2418 7.17534 14.8041 6.19709 12.7601L7.48927 10.8218C7.61973 10.6261 7.65248 10.3811 7.57793 10.1579L6.0545 5.59843C5.95065 5.28765 5.65972 5.07812 5.33203 5.07812H2.28516C1.02512 5.07812 0 6.09837 0 7.35246C0 11.5611 1.91364 15.8805 5.25027 19.2031C8.58325 22.5222 12.9111 24.4258 17.1241 24.4258ZM2.28516 6.60156H4.78344L6.01489 10.2871L4.69828 12.2619C4.55914 12.4707 4.53167 12.7345 4.62485 12.9673C5.13139 14.2337 6.14509 15.6579 7.47916 16.9778C8.80445 18.2889 10.2357 19.2915 11.5092 19.8009C11.742 19.8941 12.006 19.8666 12.2146 19.7275L14.1896 18.4109L17.875 19.6423V22.1406C17.875 22.5677 17.5452 22.9023 17.1241 22.9023C9.10508 22.9023 1.52344 15.3454 1.52344 7.35246C1.52344 6.93139 1.85804 6.60156 2.28516 6.60156V6.60156Z" fill="white"/>
<path d="M14.232 15.2272C14.5165 15.3451 14.8442 15.2799 15.0621 15.0621L17.8858 12.2383H20.6172C23.5853 12.2383 26 9.84633 26 6.90625C26 3.96617 23.5853 1.57422 20.6172 1.57422H14.5234C11.5834 1.57422 9.19141 3.96617 9.19141 6.90625C9.19141 9.58775 11.1812 11.8133 13.7617 12.184V14.5234C13.7617 14.8315 13.9473 15.1093 14.232 15.2272V15.2272ZM10.7148 6.90625C10.7148 4.80619 12.4234 3.09766 14.5234 3.09766H20.6172C22.7452 3.09766 24.4766 4.80619 24.4766 6.90625C24.4766 9.00631 22.7452 10.7148 20.6172 10.7148H17.5703C17.3683 10.7148 17.1745 10.7951 17.0317 10.9379L15.2852 12.6845V11.4766C15.2852 11.0559 14.9441 10.7148 14.5234 10.7148C12.4234 10.7148 10.7148 9.00631 10.7148 6.90625Z" fill="white"/>
</svg>
