<svg width="40" height="41" viewBox="0 0 40 41" fill="none" xmlns="http://www.w3.org/2000/svg">
<path d="M39.1314 32.0102L29.2093 22.0594C28.7043 21.5529 28.0355 21.7626 28.1548 21.7387C27.0744 21.9547 26.0843 21.2876 25.4628 20.7169L29.5504 16.6176C32.3602 17.3847 35.4055 16.5936 37.49 14.5032C39.9375 12.0486 40.5797 8.29615 39.0881 5.16592C38.7405 4.43654 37.7768 4.27154 37.2074 4.84256L33.4358 8.62506L32.0793 8.32756L31.7835 6.96748L35.5549 3.18521C36.125 2.61357 35.9589 1.64732 35.2323 1.29912C32.1099 -0.197053 28.3683 0.447009 25.922 2.90177C23.8376 4.99217 23.049 8.04662 23.8142 10.8649L17.9009 16.7953L9.88711 8.75826L10.9888 7.65334C11.4884 7.1524 11.4332 6.32388 10.8723 5.89373L6.19018 2.30287C5.72486 1.94607 5.06815 1.98982 4.65402 2.40513L1.8997 5.1674C1.48557 5.58271 1.44195 6.24138 1.79773 6.70795L5.37828 11.4037C5.80697 11.9661 6.63258 12.0221 7.13279 11.5205L8.23449 10.4157L16.2483 18.4527L10.3351 24.3831C7.52457 23.6158 4.47921 24.4065 2.39508 26.4967C-0.0527679 28.9504 -0.695073 32.7028 0.796758 35.8341C1.14412 36.5634 2.10778 36.7287 2.6774 36.1576L6.44873 32.3753L7.80486 32.6719L8.10159 34.0323L4.32994 37.8149C3.76009 38.3864 3.92563 39.3527 4.65238 39.7009C7.77456 41.1975 11.5161 40.5522 13.9628 38.0983C16.0473 36.0077 16.8361 32.9536 16.0712 30.1357L20.1578 26.0372C21.5574 27.5733 21.1774 28.7374 21.1774 28.7374C21.1029 29.1135 21.219 29.5145 21.4973 29.7936L31.4193 39.7444C32.4234 40.7512 34.057 40.7512 35.0609 39.7444L39.1312 35.6623C40.1377 34.653 40.1379 33.0195 39.1314 32.0102ZM4.27572 6.0992L5.58316 4.78802L8.39248 6.94255L6.42404 8.9167L4.27572 6.0992ZM13.6467 30.2265C14.4547 32.377 13.9302 34.8164 12.3103 36.4409C10.9887 37.7664 9.13964 38.3528 7.35217 38.0987L10.206 35.2365C10.4876 34.9543 10.6064 34.5476 10.5213 34.1575L9.92809 31.4367C9.83056 30.9892 9.48186 30.6397 9.03556 30.5421L6.32315 29.9487C5.93458 29.8635 5.52925 29.9829 5.24787 30.2651L2.39446 33.1267C2.14096 31.3341 2.72578 29.4791 4.04755 28.1542C5.66729 26.5297 8.09988 26.004 10.2445 26.8145C10.6739 26.9768 11.1585 26.872 11.4829 26.5465L25.9715 12.016C26.2961 11.6905 26.4006 11.2047 26.2388 10.774C25.4305 8.62302 25.9548 6.18341 27.5749 4.55881C28.8959 3.23318 30.7456 2.64693 32.5328 2.90115L29.6794 5.76295C29.3981 6.04506 29.2791 6.45146 29.364 6.84131L29.9556 9.56154C30.0529 10.0091 30.4014 10.3589 30.8476 10.4567L33.5606 11.0517C33.9495 11.1369 34.3549 11.0178 34.6365 10.7354L37.4904 7.87334C37.7437 9.66545 37.1589 11.5204 35.8373 12.8458C34.2174 14.4704 31.7852 14.9965 29.6408 14.1861C29.2113 14.0238 28.7269 14.1286 28.4024 14.454C28.266 14.5908 14.2676 28.6298 13.9138 28.9845C13.5893 29.31 13.4848 29.7958 13.6467 30.2265ZM23.8105 22.374C24.3205 22.8511 25.0249 23.3914 25.8767 23.7443L23.177 26.4519C22.8251 25.5976 22.2866 24.8907 21.8109 24.3794L23.8105 22.374ZM37.4788 34.005L33.4085 38.0871C33.3157 38.1801 33.1648 38.1801 33.072 38.0871L23.9762 28.965L28.383 24.5454L37.4788 33.6675C37.5719 33.7609 37.572 33.9115 37.4788 34.005Z" fill="#20B7DC"/>
</svg>
