<svg width="40" height="41" viewBox="0 0 40 41" fill="none" xmlns="http://www.w3.org/2000/svg">
<path fill-rule="evenodd" clip-rule="evenodd" d="M19.943 0.5C25.27 0.5 30.2781 2.58039 34.0449 6.35781C37.8116 10.1354 39.886 15.1578 39.886 20.5C39.886 25.8422 37.8116 30.8646 34.0449 34.6422C30.2781 38.4196 25.27 40.5 19.943 40.5C14.6161 40.5 9.60794 38.4196 5.84112 34.6422C2.07446 30.8646 0 25.8422 0 20.5C0 15.1578 2.07446 10.1354 5.84112 6.35781C9.60794 2.58039 14.6161 0.5 19.943 0.5ZM2.33707 20.5C2.33707 30.2357 10.2351 38.1563 19.943 38.1563C29.651 38.1563 37.549 30.2357 37.549 20.5C37.549 10.7643 29.651 2.84375 19.943 2.84375C10.2351 2.84375 2.33707 10.7643 2.33707 20.5ZM20.8122 10.8259C20.6039 10.5572 20.283 10.4 19.943 10.4C19.603 10.4 19.2822 10.5572 19.0738 10.8259L12.0937 19.8259C11.8364 20.1576 11.7904 20.6069 11.9751 20.984C12.1599 21.361 12.5431 21.6 12.963 21.6H15.8516V29.5C15.8516 30.1075 16.3441 30.6 16.9516 30.6H22.9345C23.542 30.6 24.0345 30.1075 24.0345 29.5V21.6H26.9231C27.3429 21.6 27.7262 21.361 27.9109 20.984C28.0956 20.6069 28.0496 20.1576 27.7923 19.8259L20.8122 10.8259ZM16.9516 19.4H15.2081L19.943 13.2949L24.6779 19.4H22.9345C22.327 19.4 21.8345 19.8925 21.8345 20.5V28.4H18.0516V20.5C18.0516 19.8925 17.5591 19.4 16.9516 19.4Z" fill="#20B7DC"/>
</svg>
