<svg width="40" height="41" viewBox="0 0 40 41" fill="none" xmlns="http://www.w3.org/2000/svg">
<path fill-rule="evenodd" clip-rule="evenodd" d="M19.943 0.5C25.27 0.5 30.2781 2.58039 34.0449 6.35781C37.8116 10.1354 39.886 15.1578 39.886 20.5C39.886 25.8422 37.8116 30.8646 34.0449 34.6422C30.2781 38.4196 25.27 40.5 19.943 40.5C14.6161 40.5 9.60794 38.4196 5.84112 34.6422C2.07446 30.8646 0 25.8422 0 20.5C0 15.1578 2.07446 10.1354 5.84112 6.35781C9.60794 2.58039 14.6161 0.5 19.943 0.5ZM2.33707 20.5C2.33707 30.2357 10.2351 38.1563 19.943 38.1563C29.651 38.1563 37.549 30.2357 37.549 20.5C37.549 10.7643 29.651 2.84375 19.943 2.84375C10.2351 2.84375 2.33707 10.7643 2.33707 20.5ZM30.8494 19.3281H33.9655C34.6108 19.3281 35.134 19.8528 35.134 20.5C35.134 21.1472 34.6108 21.6719 33.9655 21.6719H31.6087L28.801 28.0072C28.3407 29.046 26.8233 28.8851 26.5897 27.7727L24.4834 17.7387L22.6301 24.7082C22.3356 25.816 20.7936 25.8842 20.4029 24.8067L18.5566 19.715L16.398 27.8331C16.081 29.0252 14.3788 28.9798 14.1254 27.7726L11.8044 16.7163L10.1216 20.9352C9.94417 21.3802 9.51453 21.6719 9.03668 21.6719H5.92058C5.27524 21.6719 4.75205 21.1472 4.75205 20.5C4.75205 19.8528 5.27524 19.3281 5.92058 19.3281H8.24558L11.0678 12.2523C11.4972 11.1758 13.0581 11.3115 13.2962 12.4461L15.4026 22.4801L17.2559 15.5105C17.5505 14.4027 19.0925 14.3345 19.4832 15.412L21.3294 20.5038L23.488 12.3855C23.805 11.1934 25.5072 11.2388 25.7606 12.4461L28.1326 23.7448L29.7815 20.0241C29.9691 19.6009 30.3876 19.3281 30.8494 19.3281Z" fill="#20B7DC"/>
</svg>
