<svg width="32" height="32" viewBox="0 0 32 32" fill="none" xmlns="http://www.w3.org/2000/svg">
<path d="M32 16C32 7.16344 24.8366 0 16 0C7.16344 0 0 7.16344 0 16C0 24.8366 7.16344 32 16 32C24.8366 32 32 24.8366 32 16Z" fill="#20B7DC"/>
<path fill-rule="evenodd" clip-rule="evenodd" d="M19.2733 17.425C19.0956 17.336 18.2217 16.9061 18.0587 16.8467C17.8958 16.7874 17.7773 16.7578 17.6588 16.9356C17.5403 17.1136 17.1996 17.514 17.096 17.6326C16.9923 17.7512 16.8886 17.7661 16.7108 17.6771C16.5331 17.5881 15.9604 17.4005 15.2814 16.7948C14.753 16.3235 14.3963 15.7414 14.2926 15.5635C14.1889 15.3855 14.2815 15.2893 14.3705 15.2007C14.4505 15.1211 14.5483 14.9931 14.6372 14.8893C14.726 14.7855 14.7557 14.7113 14.8149 14.5928C14.8742 14.4741 14.8445 14.3703 14.8001 14.2814C14.7557 14.1924 14.4002 13.3175 14.2521 12.9615C14.1078 12.615 13.9612 12.6619 13.8521 12.6564C13.7486 12.6513 13.6299 12.6502 13.5115 12.6502C13.393 12.6502 13.2004 12.6947 13.0374 12.8726C12.8745 13.0505 12.4153 13.4806 12.4153 14.3554C12.4153 15.2304 13.0522 16.0756 13.1411 16.1942C13.23 16.3129 14.3945 18.1082 16.1776 18.8782C16.6017 19.0613 16.9328 19.1707 17.1909 19.2526C17.6167 19.3879 18.0042 19.3688 18.3105 19.323C18.652 19.272 19.3622 18.8931 19.5103 18.4779C19.6584 18.0626 19.6584 17.7067 19.614 17.6326C19.5695 17.5585 19.4511 17.514 19.2733 17.425ZM16.03 21.8533H16.0277C14.9667 21.8529 13.926 21.5679 13.0182 21.0292L12.8023 20.901L10.5645 21.488L11.1618 19.3062L11.0212 19.0824C10.4293 18.1411 10.1167 17.053 10.1172 15.9358C10.1185 12.6758 12.771 10.0235 16.0324 10.0235C17.6117 10.024 19.0962 10.6399 20.2126 11.7575C21.3289 12.8751 21.9434 14.3607 21.9428 15.9405C21.9414 19.2008 19.289 21.8533 16.03 21.8533ZM21.0622 10.9083C19.7192 9.56362 17.933 8.82278 16.03 8.82199C12.1089 8.82199 8.91764 12.0131 8.91607 15.9353C8.91556 17.1891 9.24312 18.4129 9.86566 19.4918L8.85645 23.1781L12.6276 22.1889C13.6667 22.7556 14.8365 23.0543 16.0271 23.0547H16.03H16.0301C19.9507 23.0547 23.1423 19.8633 23.1439 15.941C23.1446 14.0402 22.4053 12.2529 21.0622 10.9083Z" fill="white"/>
</svg>
