<svg width="112" height="112" viewBox="0 0 112 112" fill="none" xmlns="http://www.w3.org/2000/svg">
<path d="M56 0C25.1225 0 0 25.1203 0 56C0 86.8797 25.1225 112 56 112C86.8775 112 112 86.8797 112 56C112 25.1203 86.8775 0 56 0ZM56 107.692C27.4982 107.692 4.30769 84.5018 4.30769 56C4.30769 27.4982 27.4982 4.30769 56 4.30769C84.5018 4.30769 107.692 27.4982 107.692 56C107.692 84.5018 84.5018 107.692 56 107.692Z" fill="#20B7DC"/>
<path d="M74.389 36.0314L49.2866 70.2714L35.3441 55.3178C34.418 54.5747 33.0589 54.7277 32.318 55.6538C31.5749 56.5843 31.7257 57.939 32.654 58.6821L48.1924 74.9129C48.5887 75.2295 49.0647 75.3846 49.5386 75.3846C50.133 75.3846 50.7253 75.139 51.1497 74.6609L77.6112 38.8917C78.4017 38.0043 78.322 36.6409 77.4324 35.8526C76.5407 35.06 75.1816 35.1397 74.389 36.0314Z" fill="#20B7DC"/>
</svg>
