<svg width="32" height="32" viewBox="0 0 32 32" fill="none" xmlns="http://www.w3.org/2000/svg">
<path d="M32 16C32 7.16344 24.8366 0 16 0C7.16344 0 0 7.16344 0 16C0 24.8366 7.16344 32 16 32C24.8366 32 32 24.8366 32 16Z" fill="#20B7DC"/>
<path d="M16.9375 12.7188C17.1964 12.7188 17.4062 12.5089 17.4062 12.25C17.4062 11.9911 17.1964 11.7812 16.9375 11.7812C16.6786 11.7812 16.4688 11.9911 16.4688 12.25C16.4688 12.5089 16.6786 12.7188 16.9375 12.7188Z" fill="white"/>
<path d="M18.8125 12.7188C19.0714 12.7188 19.2812 12.5089 19.2812 12.25C19.2812 11.9911 19.0714 11.7812 18.8125 11.7812C18.5536 11.7812 18.3438 11.9911 18.3438 12.25C18.3438 12.5089 18.5536 12.7188 18.8125 12.7188Z" fill="white"/>
<path d="M20.6875 12.7188C20.9464 12.7188 21.1562 12.5089 21.1562 12.25C21.1562 11.9911 20.9464 11.7812 20.6875 11.7812C20.4286 11.7812 20.2188 11.9911 20.2188 12.25C20.2188 12.5089 20.4286 12.7188 20.6875 12.7188Z" fill="white"/>
<path d="M18.5379 23.0312C19.3096 23.0312 19.9375 22.4004 19.9375 21.625V19.75C19.9375 19.5483 19.8085 19.3693 19.6173 19.3054L16.8115 18.3679C16.6741 18.322 16.5234 18.3422 16.4029 18.4225L15.2097 19.2179C13.9291 18.6103 12.4156 17.1102 11.8136 15.8524L12.6088 14.6596C12.6891 14.5392 12.7092 14.3883 12.6633 14.251L11.7258 11.4452C11.6619 11.2539 11.4829 11.125 11.2812 11.125H9.40625C8.63084 11.125 8 11.7528 8 12.5246C8 15.1145 9.17762 17.7726 11.2309 19.8173C13.282 21.8598 15.9453 23.0312 18.5379 23.0312ZM9.40625 12.0625H10.9437L11.7015 14.3305L10.8912 15.5458C10.8056 15.6743 10.7887 15.8366 10.8461 15.9799C11.1578 16.7592 11.7816 17.6357 12.6026 18.4479C13.4181 19.2547 14.2989 19.8717 15.0826 20.1852C15.2259 20.2425 15.3883 20.2256 15.5167 20.14L16.732 19.3298L19 20.0876V21.625C19 21.8878 18.797 22.0938 18.5379 22.0938C13.6031 22.0938 8.9375 17.4433 8.9375 12.5246C8.9375 12.2655 9.14341 12.0625 9.40625 12.0625V12.0625Z" fill="white"/>
<path d="M16.7581 17.3706C16.9333 17.4431 17.1349 17.403 17.269 17.269L19.0067 15.5312H20.6875C22.514 15.5312 24 14.0593 24 12.25C24 10.4407 22.514 8.96875 20.6875 8.96875H16.9375C15.1282 8.96875 13.6562 10.4407 13.6562 12.25C13.6562 13.9002 14.8807 15.2697 16.4688 15.4979V16.9375C16.4688 17.1271 16.583 17.298 16.7581 17.3706V17.3706ZM14.5938 12.25C14.5938 10.9577 15.6452 9.90625 16.9375 9.90625H20.6875C21.9971 9.90625 23.0625 10.9577 23.0625 12.25C23.0625 13.5423 21.9971 14.5938 20.6875 14.5938H18.8125C18.6882 14.5938 18.5689 14.6431 18.4811 14.731L17.4062 15.8058V15.0625C17.4062 14.8036 17.1964 14.5938 16.9375 14.5938C15.6452 14.5938 14.5938 13.5423 14.5938 12.25Z" fill="white"/>
</svg>
