<svg width="32" height="32" viewBox="0 0 32 32" fill="none" xmlns="http://www.w3.org/2000/svg">
<path fill-rule="evenodd" clip-rule="evenodd" d="M30.2767 13.7338L26.3099 10.2366V6.23146C26.3099 5.75845 25.926 5.37456 25.453 5.37456H20.7944L16.5665 1.64708C16.2426 1.36145 15.757 1.36145 15.4331 1.64708L11.2052 5.37456H6.54655C6.07354 5.37456 5.68966 5.75845 5.68966 6.23146V10.2366L1.72282 13.7338C1.5471 13.9087 1.43262 14.0865 1.43262 14.3765V29.7103C1.43262 30.1736 1.80879 30.5672 2.28951 30.5672H29.7101C30.1897 30.5672 30.5669 30.1766 30.5669 29.7103V14.3765C30.5669 14.0958 30.4508 13.907 30.2767 13.7338ZM28.8532 27.7235L21.5205 20.8038L28.8532 15.968V27.7235ZM3.6971 14.2782L4.49639 13.5734L5.68966 12.5216V15.5921C5.02049 15.1512 4.65703 14.9114 4.34646 14.7065L4.34538 14.7058L3.6971 14.2782ZM24.5961 7.08835V16.7227L18.0084 21.0674L15.9998 22.3919C13.7 20.8754 10.904 19.0314 8.88793 17.7017L7.40344 16.7227V7.08835H24.5961ZM15.9998 3.43228L18.2031 5.37456H13.7964L15.9998 3.43228ZM28.3025 14.2782L27.6485 14.7095C27.3341 14.9169 26.9654 15.1602 26.3099 15.5921V12.5216L27.5032 13.5734L28.3025 14.2782ZM3.1464 15.968L10.4791 20.8038L3.1464 27.7235V15.968ZM11.949 21.7732L15.5279 24.1336C15.8152 24.3225 16.1843 24.3226 16.4716 24.1336L20.0506 21.7732L27.5535 28.8534H4.44602L11.949 21.7732ZM12.2769 11.9403H19.7227C20.1722 11.9403 20.5371 11.6194 20.5371 11.2239C20.5371 10.828 20.1722 10.5075 19.7227 10.5075H12.2769C11.8273 10.5075 11.4625 10.828 11.4625 11.2239C11.4625 11.6194 11.8273 11.9403 12.2769 11.9403ZM19.7227 15.7612H12.2769C11.8245 15.7612 11.4625 15.4377 11.4625 15.0448C11.4625 14.647 11.8294 14.3284 12.2769 14.3284H19.7227C20.1696 14.3284 20.5371 14.6465 20.5371 15.0448C20.5371 15.4376 20.1752 15.7612 19.7227 15.7612Z" fill="#20B7DC"/>
</svg>
