<svg width="41" height="40" viewBox="0 0 41 40" fill="none" xmlns="http://www.w3.org/2000/svg">
<path fill-rule="evenodd" clip-rule="evenodd" d="M19.3897 1.25C23.6141 1.25 27.5857 2.89978 30.5728 5.89547C33.5599 8.89122 35.2049 12.8741 35.205 17.1106C35.205 25.6807 27.1249 32.8088 22.7838 36.6385L22.7837 36.6386L22.7797 36.6421C22.1781 37.1728 21.6586 37.6312 21.2444 38.0192C20.7243 38.5063 20.057 38.7499 19.3896 38.7499C18.7223 38.7499 18.0548 38.5063 17.5348 38.0192C17.1198 37.6304 16.5988 37.1708 15.9956 36.6386C11.6545 32.8091 3.57422 25.6808 3.57422 17.1106C3.57422 12.8741 5.2193 8.89122 8.20645 5.89547C11.1935 2.89978 15.1652 1.25 19.3897 1.25ZM19.7491 36.414C20.1881 36.0029 20.7204 35.5332 21.3369 34.9894C25.418 31.3891 33.0145 24.6875 33.0144 17.1106C33.0144 9.57633 26.9023 3.44676 19.3895 3.44676C11.8766 3.44676 5.7645 9.57633 5.7645 17.1106C5.7645 24.6875 13.3611 31.3891 17.4422 34.9893L17.4451 34.9919C18.0604 35.5346 18.5918 36.0034 19.03 36.414C19.2317 36.6028 19.5475 36.6028 19.7491 36.414ZM12.4199 16.5114C12.4199 12.6573 15.5465 9.52187 19.3896 9.52187C23.2327 9.52187 26.3592 12.6573 26.3592 16.5114C26.3592 20.3655 23.2327 23.5009 19.3896 23.5009C15.5465 23.5009 12.4199 20.3655 12.4199 16.5114ZM14.6104 16.5113C14.6104 19.154 16.7543 21.3041 19.3896 21.3041C22.0249 21.3041 24.1688 19.154 24.1688 16.5113C24.1688 13.8686 22.0249 11.7185 19.3896 11.7185C16.7543 11.7185 14.6104 13.8686 14.6104 16.5113Z" fill="#20B7DC"/>
</svg>
