<svg width="40" height="41" viewBox="0 0 40 41" fill="none" xmlns="http://www.w3.org/2000/svg">
<path fill-rule="evenodd" clip-rule="evenodd" d="M39.8783 13.1278C39.8783 17.0994 38.5332 20.5909 37.2396 23.0307C38.8755 24.7038 39.886 26.9939 39.886 29.5165C39.9088 37.6388 30.0324 41.8111 24.2686 36.2244C23.2799 36.8627 22.4321 37.3617 21.848 37.6924C20.4349 38.4924 20.2684 38.5173 20.1076 38.5414C19.7751 38.5709 19.6632 38.5264 19.5234 38.4707C19.4866 38.456 19.4478 38.4406 19.4026 38.4255C12.4846 34.8633 -0.327289 24.9454 0.00639195 13.7982C-0.0634138 7.70165 4.70457 2.10968 10.8676 2.22125C14.4575 2.19085 17.9633 4.08873 19.9285 7.08332C21.8951 4.08763 25.3988 2.19078 28.9925 2.22125C34.995 2.22125 39.8783 7.11387 39.8783 13.1278ZM2.34208 13.9223C2.12464 23.4559 13.2498 32.4413 19.9548 36.0609C20.5227 35.7578 21.5458 35.1842 22.7849 34.3937C17.785 26.1358 27.0437 16.6804 35.3711 21.5546C43.7095 5.21608 25.6856 -0.831402 21.018 10.0371C20.8436 10.4881 20.4108 10.7854 19.9285 10.7854C19.4461 10.7854 19.0133 10.4881 18.8389 10.0371C18.2229 8.44366 17.1545 7.08223 15.7492 6.09997C14.3128 5.09583 12.6236 4.56509 10.8645 4.56509C8.65311 4.55876 6.65516 5.38343 5.0906 6.94878C3.32988 8.7068 2.33078 11.2583 2.34208 13.9223ZM23.7361 29.5167C23.7361 33.3357 26.8342 36.4427 30.6424 36.4427C34.4506 36.4427 37.5488 33.3357 37.5488 29.5168C37.203 20.3435 24.0833 20.3409 23.7361 29.5167ZM29.5049 30.0089L32.9655 26.5384C33.4219 26.0807 34.1618 26.0807 34.6181 26.5384C35.0745 26.996 35.0745 27.7381 34.6181 28.1957L30.3312 32.495C29.896 32.9489 29.1136 32.9489 28.6785 32.495L26.6667 30.4774C26.2104 30.0197 26.2104 29.2776 26.6667 28.82C27.1232 28.3623 27.8632 28.3624 28.3194 28.82L29.5049 30.0089Z" fill="#20B7DC"/>
</svg>
