<svg width="20" height="20" viewBox="0 0 20 20" fill="none" xmlns="http://www.w3.org/2000/svg">
<path fill-rule="evenodd" clip-rule="evenodd" d="M16.457 4.6875V10.8203C16.457 11.2518 16.8057 11.6016 17.236 11.6016C17.6662 11.6016 18.015 11.2518 18.015 10.8203V4.6875C18.015 2.10281 15.9182 0 13.3409 0H6.17383C3.5965 0 1.49968 2.10281 1.49968 4.6875V10.8203C1.49968 11.2518 1.84845 11.6016 2.27871 11.6016C2.70896 11.6016 3.05773 11.2518 3.05773 10.8203V4.6875C3.05773 2.96438 4.45561 1.5625 6.17383 1.5625H13.3409C15.0591 1.5625 16.457 2.96438 16.457 4.6875ZM14.86 7.1875C14.86 6.75602 14.5112 6.40625 14.0809 6.40625H12.7566C12.1123 6.40625 11.588 5.88055 11.588 5.23438V3.90625C11.588 3.47477 11.2393 3.125 10.809 3.125C10.3788 3.125 10.03 3.47477 10.03 3.90625V5.23438C10.03 6.74211 11.2531 7.96875 12.7566 7.96875H14.0809C14.5112 7.96875 14.86 7.61898 14.86 7.1875ZM1.03223 14.3609C1.03223 13.5502 1.68926 12.8906 2.49679 12.8906C4.43835 12.8906 6.01794 14.4775 6.01798 16.428V16.4625C6.01798 17.407 5.65196 18.2952 4.98729 18.9632C4.32216 19.6318 3.4377 20 2.49679 20C1.68922 20 1.03223 19.3404 1.03223 18.5297V14.3609ZM3.88435 17.8596C4.25556 17.4866 4.45997 16.9904 4.45997 16.4625V16.4281C4.45997 15.3706 3.62957 14.5046 2.59031 14.4554V18.4353C3.07927 18.4124 3.53578 18.21 3.88435 17.8596ZM18.3162 17.1316C17.8982 17.0293 17.4768 17.2865 17.3749 17.7057C17.2686 18.1434 16.8623 18.4375 16.3637 18.4375C15.7933 18.4375 15.3292 17.9721 15.3292 17.4001V15.4905C15.3292 14.9185 15.7933 14.4531 16.3637 14.4531C16.8637 14.4531 17.269 14.7584 17.3723 15.2127C17.4679 15.6334 17.8855 15.8966 18.305 15.8008C18.7245 15.7049 18.987 15.2861 18.8914 14.8654C18.6271 13.7027 17.5877 12.8906 16.3637 12.8906C14.9342 12.8906 13.7712 14.0569 13.7712 15.4905V17.4001C13.7712 18.8337 14.9341 20 16.3637 20C17.5752 20 18.6135 19.2086 18.8887 18.0755C18.9906 17.6563 18.7342 17.2337 18.3162 17.1316ZM7.26446 15.4905C7.26446 14.0569 8.43433 12.8906 9.87229 12.8906C11.3102 12.8906 12.4801 14.0569 12.4801 15.4905V17.4001C12.4801 18.8337 11.3102 20 9.87229 20C8.43433 20 7.26446 18.8337 7.26446 17.4001V15.4905ZM9.87229 18.4375C10.4511 18.4375 10.9221 17.9721 10.9221 17.4001V15.4905C10.9221 14.9185 10.4511 14.4531 9.87229 14.4531C9.29343 14.4531 8.82251 14.9185 8.82251 15.4905V17.4001C8.82251 17.9721 9.29343 18.4375 9.87229 18.4375Z" fill="#20B7DC"/>
</svg>
