<svg width="40" height="41" viewBox="0 0 40 41" fill="none" xmlns="http://www.w3.org/2000/svg">
<path fill-rule="evenodd" clip-rule="evenodd" d="M39.7061 29.0947C39.8193 29.2754 39.886 29.4884 39.886 29.7173C39.886 29.7222 39.8854 29.7271 39.8854 29.7316C39.8854 29.7362 39.886 29.7408 39.886 29.7454V35.6575C39.886 36.3048 39.3629 36.8297 38.7174 36.8297H36.762C36.6393 38.8735 34.9431 40.4985 32.8748 40.4985C30.8064 40.4985 29.1102 38.8735 28.9873 36.8297L16.0652 36.7903C15.9621 38.8527 14.2567 40.4985 12.175 40.4985C10.0935 40.4985 8.38819 38.8527 8.28472 36.7903H4.96505C4.31962 36.7903 3.79652 36.2657 3.79652 35.6185V26.3604H1.16853C0.523102 26.3604 0 25.8355 0 25.1885C0 24.5412 0.523102 24.0166 1.16853 24.0166H3.79652V21.773H2.80448C2.15905 21.773 1.63595 21.2481 1.63595 20.6011C1.63595 19.9538 2.15905 19.4292 2.80448 19.4292H3.79652V17.0852H1.16853C0.523102 17.0852 0 16.5606 0 15.9133C0 15.2663 0.523102 14.7414 1.16853 14.7414H14.1974C13.073 12.6784 12.2002 10.3927 12.2002 8.26439C12.2002 3.98339 15.6736 0.500122 19.9427 0.500122C24.2118 0.500122 27.6848 3.98339 27.6848 8.26439C27.6848 10.4232 26.7871 12.7444 25.6393 14.8302C26.4302 15.0786 27.0059 15.8205 27.0059 16.6945V18.2711H29.7663C32.8212 18.2711 35.5213 19.8711 36.6451 22.3479L39.7061 29.0947ZM36.8895 28.5454L35.0928 24.5858H32.8489C32.2263 24.5858 31.6801 24.966 31.6801 25.3994V28.5454H36.8895ZM25.3478 8.26439C25.3478 5.2755 22.923 2.84387 19.9427 2.84387C16.9623 2.84387 14.5376 5.2755 14.5376 8.26439C14.5376 10.4931 15.8056 13.0669 17.1997 15.2236C17.2258 15.2599 17.2505 15.2972 17.2727 15.3365C18.237 16.8139 19.2519 18.0865 19.9427 18.9031C20.6325 18.0871 21.6465 16.8163 22.6102 15.3405C22.6333 15.299 22.6592 15.2596 22.6872 15.2218C24.0806 13.0654 25.3478 10.4925 25.3478 8.26439ZM9.44839 26.3604H6.13359V34.4466H8.92224C9.61971 33.387 10.8169 32.686 12.175 32.686C13.5331 32.686 14.7302 33.387 15.4277 34.4466H24.6688V17.0852H24.2574C22.5968 19.5528 20.9286 21.3329 20.7905 21.4791C20.5699 21.7125 20.2631 21.8444 19.9427 21.8444C19.6219 21.8444 19.3155 21.7125 19.0949 21.4791C18.9564 21.3329 17.2885 19.5528 15.6279 17.0852H6.13359V19.4289H13.2796C13.9247 19.4289 14.4481 19.9538 14.4481 20.6008C14.4481 21.2481 13.9247 21.7727 13.2796 21.7727H6.13359V24.0163H9.44839C10.0938 24.0163 10.6169 24.5412 10.6169 25.1882C10.6169 25.8355 10.0938 26.3604 9.44839 26.3604ZM10.6169 36.5923C10.6169 37.4538 11.3159 38.1548 12.175 38.1548C13.034 38.1548 13.733 37.4538 13.733 36.5923C13.733 35.7308 13.034 35.0298 12.175 35.0298C11.3159 35.0298 10.6169 35.7308 10.6169 36.5923ZM31.3164 36.5923C31.3164 37.4538 32.0154 38.1548 32.8748 38.1548C33.7338 38.1548 34.4328 37.4538 34.4328 36.5923C34.4328 36.4464 34.4115 36.3057 34.3738 36.1717C34.3388 36.0997 34.3111 36.024 34.291 35.9447C34.0448 35.4058 33.5035 35.0298 32.8748 35.0298C32.2461 35.0298 31.7044 35.4058 31.4585 35.9447C31.4384 36.024 31.4107 36.0997 31.3754 36.1717C31.338 36.3057 31.3164 36.4464 31.3164 36.5923ZM32.8748 32.686C34.2493 32.686 35.4589 33.4044 36.1524 34.4856H37.5489V30.8895H30.5115C29.8664 30.8895 29.343 30.3646 29.343 29.7176V25.3994C29.343 23.6583 30.9156 22.242 32.8489 22.242H33.7883C32.8437 21.2377 31.3624 20.6148 29.7663 20.6148H27.0059V34.4856H29.5971C30.2906 33.4044 31.5002 32.686 32.8748 32.686ZM22.2797 8.21881C22.2797 9.51123 21.2314 10.5626 19.9427 10.5626C18.6539 10.5626 17.6056 9.51123 17.6056 8.21881C17.6056 6.92639 18.6539 5.87506 19.9427 5.87506C21.2314 5.87506 22.2797 6.92639 22.2797 8.21881Z" fill="#20B7DC"/>
</svg>
