<svg width="32" height="33" viewBox="0 0 32 33" fill="none" xmlns="http://www.w3.org/2000/svg">
<path d="M24.1264 5.21637C21.7299 2.81983 18.5435 1.5 15.1543 1.5C11.7651 1.5 8.57868 2.81983 6.18219 5.21637C3.78565 7.61298 2.46582 10.7993 2.46582 14.1884C2.46582 21.0446 8.94853 26.7473 12.4313 29.8109C12.9153 30.2367 13.3332 30.6043 13.6662 30.9153C14.0834 31.3051 14.6189 31.4999 15.1543 31.4999C15.6897 31.4999 16.2251 31.3051 16.6424 30.9153C16.9754 30.6043 17.3933 30.2367 17.8773 29.8109C21.3601 26.7472 27.8428 21.0446 27.8428 14.1884C27.8427 10.7993 26.5229 7.61298 24.1264 5.21637ZM16.7165 28.4915C16.222 28.9266 15.7949 29.3023 15.4427 29.6312C15.2809 29.7822 15.0276 29.7823 14.8657 29.6312C14.5137 29.3022 14.0865 28.9265 13.5919 28.4914C10.3177 25.6113 4.22305 20.25 4.22305 14.1885C4.22305 8.16107 9.12671 3.25741 15.1542 3.25741C21.1816 3.25741 26.0853 8.16107 26.0853 14.1885C26.0854 20.25 19.9908 25.6113 16.7165 28.4915Z" fill="#20B7DC"/>
<path d="M15.1542 8.11743C12.0709 8.11743 9.5625 10.6258 9.5625 13.709C9.5625 16.7923 12.0709 19.3007 15.1542 19.3007C18.2374 19.3007 20.7458 16.7923 20.7458 13.709C20.7458 10.6258 18.2374 8.11743 15.1542 8.11743ZM15.1542 17.5432C13.0399 17.5432 11.3198 15.8232 11.3198 13.709C11.3198 11.5948 13.0399 9.87472 15.1542 9.87472C17.2684 9.87472 18.9884 11.5948 18.9884 13.709C18.9884 15.8232 17.2684 17.5432 15.1542 17.5432Z" fill="#20B7DC"/>
</svg>
