<svg width="41" height="40" viewBox="0 0 41 40" fill="none" xmlns="http://www.w3.org/2000/svg">
<path fill-rule="evenodd" clip-rule="evenodd" d="M38.2376 17.1672L33.2932 12.7956V7.78926C33.2932 7.198 32.8147 6.71814 32.2251 6.71814H26.4184L21.1486 2.05879C20.7449 1.70176 20.1396 1.70176 19.7359 2.05879L14.4661 6.71814H8.65936C8.06979 6.71814 7.5913 7.198 7.5913 7.78926V12.7956L2.64687 17.1672C2.42785 17.3858 2.28516 17.6081 2.28516 17.9706V37.1378C2.28516 37.7169 2.75404 38.2089 3.35322 38.2089H37.5313C38.1291 38.2089 38.5993 37.7206 38.5993 37.1378V17.9706C38.5993 17.6197 38.4546 17.3837 38.2376 17.1672ZM36.4632 34.6543L27.3234 26.0046L36.4632 19.96V34.6543ZM5.10769 17.8477L6.10396 16.9667L7.5913 15.652V19.4901C6.75628 18.9383 6.30318 18.6385 5.91578 18.3822C5.64959 18.2061 5.41442 18.0505 5.10769 17.8477ZM31.157 8.86037V20.9033L29.1594 22.2246C25.1938 24.8475 24.0698 25.5909 22.9458 26.3342L20.4422 27.9898C17.581 26.0977 14.1035 23.7976 11.5917 22.1363L11.5698 22.1218L9.72742 20.9033V8.86037H31.157ZM20.4422 4.29028L23.1886 6.71814H17.6959L20.4422 4.29028ZM35.7768 17.8477C35.4731 18.0484 35.2337 18.2068 34.9617 18.3868C34.5698 18.6461 34.1102 18.9502 33.2932 19.4901V15.652L34.7805 16.9667L35.7768 17.8477ZM4.42128 19.96L13.5611 26.0046L4.42128 34.6543V19.96ZM15.3931 27.2164L19.8541 30.167C20.2122 30.4031 20.6722 30.4031 21.0304 30.167L25.4913 27.2164L34.8433 36.0667H6.04118L15.3931 27.2164ZM15.8019 14.9253H25.0826C25.6429 14.9253 26.0977 14.5241 26.0977 14.0298C26.0977 13.5349 25.6429 13.1343 25.0826 13.1343H15.8019C15.2415 13.1343 14.7868 13.5349 14.7868 14.0298C14.7868 14.5241 15.2415 14.9253 15.8019 14.9253ZM25.0826 19.7015H15.8019C15.238 19.7015 14.7868 19.297 14.7868 18.8059C14.7868 18.3087 15.2442 17.9104 15.8019 17.9104H25.0826C25.6397 17.9104 26.0977 18.3081 26.0977 18.8059C26.0977 19.2969 25.6466 19.7015 25.0826 19.7015Z" fill="#20B7DC"/>
</svg>
