<svg width="41" height="40" viewBox="0 0 41 40" fill="none" xmlns="http://www.w3.org/2000/svg">
<path fill-rule="evenodd" clip-rule="evenodd" d="M23.6064 23.1724C23.2722 23.5075 22.7695 23.6078 22.3329 23.4264C21.8963 23.245 21.6116 22.8177 21.6116 22.3438V18.7447C17.6528 18.1743 14.6003 14.7504 14.6003 10.625C14.6003 6.1018 18.2698 2.42188 22.7801 2.42188H32.1284C36.6816 2.42188 40.386 6.1018 40.386 10.625C40.386 15.1482 36.6816 18.8281 32.1284 18.8281H27.9382L23.6064 23.1724ZM22.7801 4.76562C19.5584 4.76562 16.9374 7.39414 16.9374 10.625C16.9374 13.8559 19.5584 16.4844 22.7801 16.4844C23.4254 16.4844 23.9486 17.0091 23.9486 17.6562V19.5146L26.628 16.8276C26.8471 16.6078 27.1443 16.4844 27.4542 16.4844H32.1284C35.393 16.4844 38.049 13.8559 38.049 10.625C38.049 7.39414 35.393 4.76562 32.1284 4.76562H22.7801ZM26.7697 37.5781C28.6935 37.5781 30.2587 36.001 30.2587 34.0625V29.375C30.2587 28.8709 29.9372 28.4233 29.4605 28.2635L22.4659 25.9198C22.1235 25.8051 21.7477 25.8555 21.4474 26.0562L18.4729 28.0448C15.2806 26.5258 11.5075 22.7755 10.0068 19.6309L11.9891 16.649C12.1893 16.3479 12.2395 15.9709 12.1251 15.6276L9.78807 8.61297C9.62876 8.13484 9.18246 7.8125 8.67975 7.8125H4.00561C2.07262 7.8125 0.5 9.38211 0.5 11.3115C0.5 17.7863 3.43567 24.4315 8.55433 29.5433C13.6674 34.6495 20.3067 37.5781 26.7697 37.5781ZM4.00561 10.1562H7.83817L9.72731 15.8263L7.70753 18.8645C7.49408 19.1856 7.45193 19.5915 7.59488 19.9498C8.37196 21.898 9.92705 24.0891 11.9736 26.1197C14.0067 28.1368 16.2023 29.6793 18.156 30.463C18.5132 30.6062 18.9181 30.564 19.2382 30.35L22.2679 28.3245L27.9217 30.219V34.0625C27.9217 34.7196 27.4157 35.2344 26.7697 35.2344C14.4679 35.2344 2.83707 23.6083 2.83707 11.3115C2.83707 10.6637 3.35037 10.1562 4.00561 10.1562ZM22.7801 11.7969C23.4255 11.7969 23.9486 11.2722 23.9486 10.625C23.9486 9.97779 23.4255 9.45312 22.7801 9.45312C22.1347 9.45312 21.6116 9.97779 21.6116 10.625C21.6116 11.2722 22.1347 11.7969 22.7801 11.7969ZM27.4542 11.7969C28.0996 11.7969 28.6228 11.2722 28.6228 10.625C28.6228 9.97779 28.0996 9.45312 27.4542 9.45312C26.8089 9.45312 26.2857 9.97779 26.2857 10.625C26.2857 11.2722 26.8089 11.7969 27.4542 11.7969ZM33.2969 10.625C33.2969 11.2722 32.7738 11.7969 32.1284 11.7969C31.483 11.7969 30.9598 11.2722 30.9598 10.625C30.9598 9.97779 31.483 9.45312 32.1284 9.45312C32.7738 9.45312 33.2969 9.97779 33.2969 10.625Z" fill="#20B7DC"/>
</svg>
