<svg width="40" height="41" viewBox="0 0 40 41" fill="none" xmlns="http://www.w3.org/2000/svg">
<path d="M34.0449 6.35781C30.2781 2.58039 25.27 0.5 19.943 0.5C14.6161 0.5 9.60794 2.58039 5.84112 6.35781C2.07446 10.1354 0 15.1578 0 20.5C0 25.8422 2.07446 30.8646 5.84112 34.6422C9.60794 38.4196 14.6161 40.5 19.943 40.5C25.27 40.5 30.2781 38.4196 34.0449 34.6422C37.8116 30.8646 39.886 25.8422 39.886 20.5C39.886 15.1578 37.8116 10.1354 34.0449 6.35781V6.35781ZM18.7647 20.5C18.7647 19.8484 19.2933 19.3184 19.943 19.3184C20.5927 19.3184 21.1213 19.8484 21.1213 20.5C21.1213 21.1516 20.5927 21.6816 19.943 21.6816C19.2933 21.6816 18.7647 21.1516 18.7647 20.5V20.5ZM10.1505 5.83406L10.7172 6.81852C10.9336 7.19445 11.3264 7.40461 11.7302 7.40461C11.9285 7.40461 12.1294 7.35398 12.3134 7.24742C12.8724 6.92383 13.0638 6.20711 12.7411 5.64664L12.1727 4.65945C14.1873 3.66156 16.4182 3.03922 18.7744 2.88367V17.1757C18.3616 17.3221 17.9843 17.5437 17.6583 17.8241L5.31879 10.6795C6.59989 8.76711 8.24356 7.11875 10.1505 5.83406ZM29.7356 35.1659L29.1688 34.1815C28.8461 33.6209 28.1316 33.429 27.5726 33.7526C27.0137 34.0762 26.8222 34.7929 27.1449 35.3534L27.7133 36.3405C25.6988 37.3384 23.4679 37.9608 21.1116 38.1163V34.621C21.1116 33.9738 20.5884 33.4491 19.9431 33.4491C19.2978 33.4491 18.7746 33.9738 18.7746 34.621V38.1163C16.4183 37.9607 14.1874 37.3384 12.1729 36.3405L12.7413 35.3534C13.064 34.7929 12.8725 34.0762 12.3136 33.7526C11.7546 33.4288 11.0399 33.6209 10.7173 34.1815L10.1506 35.1659C8.24371 33.8812 6.60005 32.2329 5.31902 30.3205L6.30067 29.7522C6.85962 29.4286 7.0511 28.7119 6.72835 28.1514C6.4056 27.5909 5.69108 27.3989 5.13213 27.7225L4.14776 28.2925C3.15248 26.2721 2.53198 24.0348 2.3768 21.6719H5.86216C6.5075 21.6719 7.03069 21.1472 7.03069 20.5C7.03069 19.8528 6.5075 19.3281 5.86216 19.3281H2.3768C2.53198 16.9652 3.15248 14.7279 4.14753 12.7076L16.488 19.8527C16.449 20.0627 16.4276 20.2788 16.4276 20.5C16.4276 22.4439 18.0046 24.0254 19.9429 24.0254C21.8813 24.0254 23.4583 22.4439 23.4583 20.5C23.4583 18.9669 22.477 17.6598 21.1115 17.1756V2.88359C23.4677 3.03922 25.6986 3.66148 27.7132 4.65938L27.1448 5.64656C26.822 6.20703 27.0135 6.92375 27.5725 7.24734C27.7565 7.35391 27.9574 7.40453 28.1556 7.40453C28.5595 7.40453 28.9523 7.19437 29.1687 6.81844L29.7354 5.83398C31.6423 7.11867 33.286 8.76703 34.567 10.6794L33.5854 11.2477C33.0264 11.5713 32.8349 12.288 33.1577 12.8485C33.3741 13.2245 33.7669 13.4346 34.1707 13.4346C34.369 13.4346 34.5699 13.384 34.7539 13.2774L35.7383 12.7074C36.7333 14.7277 37.3539 16.965 37.509 19.328H34.0236C33.3783 19.328 32.8551 19.8527 32.8551 20.4998C32.8551 21.147 33.3783 21.6717 34.0236 21.6717H37.509C37.3538 24.0347 36.7333 26.272 35.7383 28.2923L34.7539 27.7223C34.195 27.3985 33.4803 27.5906 33.1577 28.1512C32.8349 28.7116 33.0264 29.4284 33.5854 29.752L34.567 30.3203C33.2861 32.2329 31.6425 33.8812 29.7356 35.1659V35.1659Z" fill="#20B7DC"/>
</svg>
