<svg width="389" height="429" viewBox="0 0 389 429" fill="none" xmlns="http://www.w3.org/2000/svg">
<path d="M163.695 199.031C145.42 199.031 127.556 193.606 112.361 183.444C97.1659 173.281 85.3229 158.837 78.3294 141.937C71.3359 125.038 69.5061 106.442 73.0714 88.5014C76.6366 70.5609 85.4368 54.0814 98.359 41.147C111.281 28.2126 127.745 19.4042 145.669 15.8356C163.592 12.267 182.171 14.0985 199.055 21.0986C215.938 28.0986 230.369 39.9528 240.522 55.162C250.675 70.3713 256.094 88.2525 256.094 106.545C256.066 131.065 246.322 154.573 229 171.911C211.678 189.25 188.192 199.003 163.695 199.031ZM163.695 15.515C145.708 15.515 128.125 20.8538 113.169 30.8562C98.2136 40.8587 86.5571 55.0756 79.6737 71.709C72.7904 88.3425 70.9894 106.645 74.4985 124.303C78.0076 141.961 86.6692 158.181 99.3879 170.912C112.107 183.643 128.311 192.313 145.953 195.825C163.594 199.337 181.88 197.535 198.498 190.645C215.116 183.755 229.319 172.088 239.312 157.118C249.305 142.148 254.639 124.548 254.639 106.545C254.612 82.4104 245.021 59.2725 227.972 42.207C210.923 25.1416 187.806 15.5423 163.695 15.515Z" fill="#F2F2F2"/>
<path d="M170.746 126.782H229.992C230.185 126.782 230.37 126.705 230.507 126.569C230.643 126.432 230.72 126.247 230.72 126.054C230.72 125.861 230.643 125.675 230.507 125.539C230.37 125.402 230.185 125.326 229.992 125.326H170.746C170.553 125.326 170.368 125.402 170.231 125.539C170.095 125.675 170.018 125.861 170.018 126.054C170.018 126.247 170.095 126.432 170.231 126.569C170.368 126.705 170.553 126.782 170.746 126.782Z" fill="#3F3D56"/>
<path d="M244.754 124.597C239.809 124.603 235.068 126.572 231.571 130.072C228.074 133.572 226.107 138.318 226.102 143.268V222.445C226.107 227.395 228.074 232.14 231.571 235.641C235.068 239.141 239.809 241.11 244.754 241.115H367.51C372.455 241.11 377.197 239.141 380.693 235.641C384.19 232.14 386.157 227.395 386.163 222.445V143.268C386.157 138.318 384.19 133.572 380.693 130.072C377.197 126.572 372.455 124.603 367.51 124.597H244.754Z" fill="white"/>
<path d="M367.51 241.843H244.754C239.616 241.837 234.69 239.792 231.057 236.155C227.424 232.518 225.38 227.588 225.374 222.445V143.268C225.38 138.125 227.424 133.194 231.057 129.557C234.69 125.92 239.616 123.875 244.754 123.869H367.51C372.648 123.875 377.574 125.92 381.208 129.557C384.841 133.194 386.885 138.125 386.89 143.268V222.445C386.885 227.588 384.841 232.518 381.208 236.155C377.574 239.792 372.648 241.837 367.51 241.843ZM244.754 125.325C240.002 125.331 235.446 127.223 232.085 130.586C228.725 133.95 226.834 138.511 226.829 143.268V222.445C226.834 227.202 228.725 231.762 232.085 235.126C235.446 238.489 240.002 240.381 244.754 240.387H367.51C372.263 240.381 376.819 238.489 380.179 235.126C383.54 231.762 385.43 227.202 385.435 222.445V143.268C385.43 138.511 383.54 133.95 380.179 130.586C376.819 127.223 372.263 125.331 367.51 125.325H244.754Z" fill="#3F3D56"/>
<path d="M168.641 119.965C166.806 120.284 165.168 121.307 164.075 122.817C162.982 124.327 162.521 126.204 162.789 128.049C162.85 128.423 162.941 128.791 163.062 129.15L126.462 161.437L140.019 170.942L172.365 133.227C173.814 132.608 175.017 131.527 175.788 130.152C176.558 128.777 176.852 127.186 176.623 125.626C176.485 124.74 176.173 123.89 175.706 123.124C175.239 122.358 174.627 121.692 173.903 121.163C173.179 120.635 172.358 120.254 171.487 120.043C170.616 119.832 169.712 119.795 168.826 119.933C168.764 119.943 168.703 119.954 168.641 119.965Z" fill="#A0616A"/>
<path d="M154.758 156.501C154.758 156.501 146.5 166.019 136.445 176.797C135.747 177.54 135.048 178.29 134.328 179.047C128.217 185.529 121.632 192.258 115.921 197.479C109.832 203.065 104.731 206.953 102.258 207.048C102.052 207.062 101.845 207.039 101.647 206.983C94.2474 204.754 100.344 207.405 97.1794 211.927C94 216.457 94.3929 210.515 87.2702 206.983C80.162 203.451 83.9453 206.961 81.1078 212.539C80.2275 214.287 72.5009 213.93 62.3151 212.619C61.1656 202.897 59.4922 194.508 59.4922 194.508C59.4714 188.677 60.0664 182.86 61.2675 177.154C79.0124 176.834 93.6871 176.652 94.4365 176.885C96.3718 177.474 100.533 175.982 105.132 173.382C105.786 173.01 107.023 172.151 108.66 170.942C110.108 169.879 111.854 168.554 113.797 167.068C115.979 165.378 119.697 164.454 120.905 161.512C124.412 153.02 123.211 159.356 124.15 158.963C125.219 158.511 127.111 158.336 128.217 157.688C128.519 157.556 128.768 157.325 128.923 157.032C129.077 156.74 129.129 156.404 129.068 156.079C129.014 155.803 128.921 155.535 128.792 155.285C127.787 153.268 129.315 153.071 130.756 152.86C131.353 152.831 131.934 152.658 132.451 152.358C138.235 147.741 142.615 144.194 142.615 144.194L144.187 145.796L144.194 145.803L153.492 155.227L154.758 156.501Z" fill="#337CB1"/>
<path d="M146.826 428.106H54.8792C50.9434 428.106 47.7412 424.06 47.7412 419.087V321.294C47.7412 316.321 50.9434 312.275 54.8792 312.275H146.826C150.761 312.275 153.964 316.321 153.964 321.294V419.087C153.964 424.06 150.761 428.106 146.826 428.106Z" fill="#BFECF7"/>
<path d="M210.674 414.544L219.943 414.543L224.354 378.752L210.671 378.753L210.674 414.544Z" fill="#A0616A"/>
<path d="M210.347 424.224L238.855 424.223V423.862C238.854 420.917 237.685 418.092 235.604 416.009C233.524 413.926 230.701 412.756 227.759 412.756H227.758L222.55 408.802L212.835 412.756L210.346 412.757L210.347 424.224Z" fill="#2F2E41"/>
<path d="M153.093 410.277L162.016 412.791L175.953 379.536L162.782 375.824L153.093 410.277Z" fill="#A0616A"/>
<path d="M150.158 419.507L177.599 427.239L177.697 426.892C178.494 424.056 178.134 421.02 176.695 418.451C175.256 415.881 172.856 413.989 170.023 413.191L170.023 413.191L166.081 407.972L155.658 409.143L153.262 408.468L150.158 419.507Z" fill="#2F2E41"/>
<path d="M129.337 257.864C129.337 257.864 126.369 257.569 133.979 260.205C142.215 263.067 154.714 262.695 166.683 266.992C170.378 268.317 174.125 269.672 177.843 271.026C178.593 271.296 179.342 271.573 180.091 271.842C184.93 273.612 189.688 275.381 194.184 277.071C194.817 277.311 195.443 277.551 196.061 277.784C196.076 277.792 196.09 277.792 196.097 277.799C210.758 283.377 222.289 288.155 224.196 290.063C226.233 292.102 227.077 305.88 227.309 322.906C227.731 354.46 226.065 397.179 226.065 397.179L208.917 397.113C208.917 397.113 208.808 396.735 208.597 396.028C208.218 394.725 207.513 392.3 206.574 389.132C202.675 375.9 194.824 349.676 190.488 337.667C189.266 334.274 188.32 332.016 187.818 331.507C184.908 328.521 187.818 327.203 190.728 325.309C193.638 323.416 190.728 322.833 188.589 320.357C186.45 317.881 189.389 312.303 189.389 312.303C189.389 312.303 187.454 312.252 184.369 312.172C179.815 312.055 172.729 311.881 165.635 311.706C165.628 311.713 165.628 311.713 165.628 311.706C162.957 311.64 160.287 311.575 157.756 311.516C155.791 311.465 153.907 311.422 152.161 311.378C146.93 311.262 142.972 311.181 141.982 311.181C138.752 311.181 141.262 311.181 139.312 308.625C139.013 308.243 138.69 307.881 138.344 307.54C137.855 306.995 137.32 306.493 136.744 306.04C136.336 305.851 136.889 307.023 136.584 308.545C136.417 309.37 136.027 310.133 135.456 310.752C132.568 313.963 123.706 310.497 123.706 310.497C109.126 317.794 97.165 317.27 87.9542 313.854C81.3379 311.302 75.4031 307.249 70.6166 302.013C68.7221 300.019 67.0217 297.849 65.5383 295.532L64.3379 295.306C64.3379 295.306 62.7226 241.137 64.5851 237.474C67.4881 231.765 110.421 236.017 110.421 236.017L129.337 257.864Z" fill="#2F2E41"/>
<path d="M209.306 38.6654H268.553C268.746 38.6654 268.931 38.5887 269.067 38.4521C269.204 38.3156 269.281 38.1304 269.281 37.9372C269.281 37.7441 269.204 37.5588 269.067 37.4223C268.931 37.2857 268.746 37.209 268.553 37.209H209.306C209.113 37.209 208.928 37.2857 208.792 37.4223C208.655 37.5588 208.579 37.7441 208.579 37.9372C208.579 38.1304 208.655 38.3156 208.792 38.4521C208.928 38.5887 209.113 38.6654 209.306 38.6654Z" fill="#3F3D56"/>
<path d="M289.52 96.58C277.507 80.5871 270.564 62.7029 270.337 42.3135C269.95 41.2147 270.014 40.0071 270.516 38.9557C271.017 37.9042 271.915 37.0948 273.011 36.7049L313.956 22.2039C315.054 21.8165 316.26 21.8808 317.311 22.3827C318.361 22.8846 319.17 23.783 319.559 24.8809L338.742 79.1474C339.129 80.2462 339.065 81.4538 338.564 82.5053C338.062 83.5567 337.165 84.3662 336.068 84.7561L295.123 99.257C294.025 99.6444 292.819 99.5801 291.769 99.0783C290.718 98.5764 289.909 97.678 289.52 96.58Z" fill="#E6E6E6"/>
<path d="M286.867 79.0769C279.642 71.7652 276.549 58.7243 274.534 44.1895C274.172 43.1604 274.232 42.0295 274.701 41.0447C275.171 40.06 276.011 39.3019 277.039 38.9368L312.227 26.4745C313.255 26.1116 314.385 26.1718 315.369 26.6418C316.353 27.1118 317.11 27.9532 317.475 28.9814L334.545 77.2713C334.908 78.3004 334.848 79.4313 334.378 80.4161C333.908 81.4008 333.068 82.1589 332.04 82.524L310.242 90.2442C305.662 91.8602 300.629 91.5921 296.247 89.4986C291.865 87.405 288.491 83.6571 286.867 79.0769Z" fill="white"/>
<path d="M317.946 54.9955L290.535 64.789C290.319 64.8661 290.09 64.9 289.861 64.8885C289.632 64.8771 289.407 64.8206 289.2 64.7223C288.993 64.624 288.807 64.4858 288.653 64.3156C288.499 64.1454 288.38 63.9466 288.303 63.7304C288.226 63.5142 288.192 63.2849 288.204 63.0557C288.215 62.8264 288.272 62.6017 288.37 62.3942C288.468 62.1868 288.606 62.0008 288.776 61.8468C288.946 61.6927 289.145 61.5737 289.361 61.4966L316.772 51.7031C316.988 51.6259 317.217 51.5921 317.446 51.6035C317.675 51.6149 317.899 51.6714 318.107 51.7697C318.314 51.868 318.5 52.0062 318.654 52.1764C318.808 52.3466 318.926 52.5455 319.003 52.7616C319.081 52.9778 319.114 53.2071 319.103 53.4363C319.092 53.6656 319.035 53.8904 318.937 54.0978C318.839 54.3052 318.701 54.4913 318.531 54.6453C318.361 54.7993 318.162 54.9183 317.946 54.9955Z" fill="#21B7DB"/>
<path d="M293.346 53.6064L287.316 55.761C286.879 55.9163 286.4 55.892 285.982 55.6934C285.563 55.4948 285.241 55.1381 285.086 54.7018C284.93 54.2655 284.954 53.7852 285.152 53.3665C285.35 52.9477 285.706 52.6248 286.141 52.4686L292.172 50.314C292.608 50.1582 293.088 50.1821 293.507 50.3807C293.925 50.5792 294.248 50.936 294.404 51.3726C294.559 51.8092 294.535 52.2898 294.337 52.7088C294.139 53.1277 293.782 53.4506 293.346 53.6064Z" fill="#21B7DB"/>
<path d="M323.108 69.4697L295.697 79.2632C295.481 79.3404 295.252 79.3742 295.023 79.3628C294.794 79.3513 294.569 79.2948 294.362 79.1965C294.155 79.0982 293.969 78.9601 293.815 78.7899C293.661 78.6197 293.542 78.4208 293.465 78.2046C293.388 77.9884 293.354 77.7592 293.365 77.5299C293.377 77.3007 293.433 77.0759 293.532 76.8685C293.63 76.661 293.768 76.475 293.938 76.321C294.108 76.167 294.307 76.048 294.523 75.9708L321.933 66.1773C322.149 66.0998 322.379 66.0658 322.608 66.0771C322.837 66.0883 323.062 66.1447 323.269 66.243C323.477 66.3412 323.663 66.4794 323.817 66.6497C323.971 66.82 324.09 67.019 324.167 67.2353C324.244 67.4516 324.278 67.681 324.266 67.9104C324.255 68.1398 324.198 68.3647 324.1 68.5722C324.001 68.7797 323.863 68.9658 323.693 69.1198C323.523 69.2738 323.324 69.3927 323.108 69.4697H323.108Z" fill="#21B7DB"/>
<path d="M320.527 62.2325L293.116 72.026C292.68 72.1819 292.2 72.1579 291.781 71.9594C291.363 71.7609 291.04 71.4041 290.884 70.9675C290.729 70.5309 290.753 70.0502 290.951 69.6313C291.149 69.2124 291.506 68.8895 291.942 68.7336L319.353 58.9401C319.789 58.7848 320.269 58.8092 320.687 59.0078C321.105 59.2064 321.427 59.563 321.583 59.9993C321.738 60.4356 321.715 60.9159 321.517 61.3347C321.319 61.7534 320.963 62.0763 320.527 62.2325Z" fill="#21B7DB"/>
<path d="M272.665 48.1325C276.683 48.1325 279.94 44.872 279.94 40.8501C279.94 36.8282 276.683 33.5677 272.665 33.5677C268.647 33.5677 265.389 36.8282 265.389 40.8501C265.389 44.872 268.647 48.1325 272.665 48.1325Z" fill="#21B7DB"/>
<path d="M141.039 24.8289H81.7925C81.5995 24.8289 81.4145 24.7522 81.278 24.6156C81.1416 24.479 81.0649 24.2938 81.0649 24.1007C81.0649 23.9075 81.1416 23.7223 81.278 23.5857C81.4145 23.4492 81.5995 23.3724 81.7925 23.3724H141.039C141.232 23.3724 141.417 23.4492 141.554 23.5857C141.69 23.7223 141.767 23.9075 141.767 24.1007C141.767 24.2938 141.69 24.479 141.554 24.6156C141.417 24.7522 141.232 24.8289 141.039 24.8289Z" fill="#3F3D56"/>
<path d="M5.17683 50.6606C10.3224 31.3262 20.0851 14.8141 35.9642 2.04075C36.5885 1.05739 37.5769 0.362045 38.7127 0.107246C39.8485 -0.147553 41.0389 0.0590085 42.0228 0.681615L78.707 23.9548C79.6894 24.5796 80.3841 25.569 80.6387 26.7059C80.8933 27.8428 80.6869 29.0343 80.0649 30.0191L49.2775 78.6389C48.6532 79.6222 47.6648 80.3176 46.529 80.5724C45.3932 80.8272 44.2028 80.6206 43.2189 79.998L6.53469 56.7248C5.55225 56.1 4.85756 55.1106 4.603 53.9737C4.34843 52.8369 4.55481 51.6453 5.17683 50.6606Z" fill="#E6E6E6"/>
<path d="M17.2898 37.7606C18.5719 27.5572 26.9077 17.0676 37.0828 6.50336C37.6674 5.5824 38.5931 4.93115 39.6568 4.69252C40.7206 4.4539 41.8354 4.64736 42.7568 5.23048L74.2838 25.2318C75.2039 25.817 75.8546 26.7436 76.093 27.8083C76.3314 28.8731 76.1382 29.989 75.5556 30.9113L48.1591 74.1763C47.5744 75.0973 46.6487 75.7485 45.5849 75.9871C44.5212 76.2257 43.4063 76.0322 42.4849 75.4491L22.9546 63.0587C18.8562 60.4521 15.9581 56.3247 14.8961 51.5821C13.8341 46.8394 14.695 41.8687 17.2898 37.7606Z" fill="white"/>
<path d="M55.4077 47.3506L30.7817 31.823C30.3904 31.5756 30.1132 31.1829 30.0109 30.7311C29.9087 30.2793 29.9898 29.8053 30.2365 29.4133C30.4832 29.0214 30.8753 28.7434 31.3265 28.6406C31.7778 28.5378 32.2515 28.6186 32.6433 28.8651L57.2693 44.3927C57.4636 44.5149 57.6319 44.6742 57.7646 44.8616C57.8974 45.049 57.9919 45.2607 58.0428 45.4847C58.0937 45.7087 58.1 45.9405 58.0614 46.1669C58.0228 46.3933 57.9399 46.6099 57.8176 46.8042C57.6953 46.9986 57.5359 47.1669 57.3486 47.2995C57.1612 47.4322 56.9496 47.5266 56.7258 47.5773C56.502 47.6281 56.2704 47.6342 56.0442 47.5952C55.8181 47.5563 55.6018 47.4732 55.4077 47.3506Z" fill="#21B7DB"/>
<path d="M41.3041 27.1283L35.8864 23.7122C35.6921 23.59 35.5238 23.4306 35.391 23.2433C35.2583 23.0559 35.1638 22.8442 35.1129 22.6202C35.062 22.3962 35.0556 22.1644 35.0943 21.938C35.1329 21.7116 35.2157 21.495 35.3381 21.3007C35.4604 21.1063 35.6198 20.938 35.8071 20.8053C35.9944 20.6727 36.2061 20.5783 36.4299 20.5276C36.6537 20.4768 36.8853 20.4707 37.1114 20.5096C37.3376 20.5485 37.5539 20.6317 37.7479 20.7543L43.1656 24.1704C43.3599 24.2926 43.5282 24.452 43.661 24.6394C43.7937 24.8267 43.8882 25.0385 43.9391 25.2624C43.9901 25.4864 43.9964 25.7182 43.9577 25.9446C43.9191 26.171 43.8362 26.3876 43.7139 26.582C43.5916 26.7763 43.4323 26.9446 43.2449 27.0773C43.0576 27.2099 42.8459 27.3043 42.6221 27.3551C42.3983 27.4058 42.1667 27.4119 41.9405 27.373C41.7144 27.3341 41.4981 27.2509 41.3041 27.1283Z" fill="#21B7DB"/>
<path d="M47.2238 60.3542L22.5978 44.8266C22.4035 44.7044 22.2352 44.545 22.1025 44.3576C21.9698 44.1703 21.8752 43.9585 21.8243 43.7346C21.7734 43.5106 21.7671 43.2788 21.8057 43.0524C21.8443 42.826 21.9272 42.6094 22.0495 42.415C22.1718 42.2207 22.3312 42.0524 22.5185 41.9197C22.7059 41.7871 22.9175 41.6927 23.1413 41.6419C23.3651 41.5912 23.5967 41.5851 23.8229 41.624C24.0491 41.6629 24.2653 41.7461 24.4594 41.8687L49.0853 57.3963C49.4767 57.6436 49.754 58.0363 49.8562 58.4882C49.9584 58.94 49.8773 59.4139 49.6306 59.8059C49.3839 60.1979 48.9918 60.4758 48.5406 60.5786C48.0893 60.6814 47.6157 60.6007 47.2238 60.3542Z" fill="#21B7DB"/>
<path d="M51.3161 53.8524L26.6901 38.3248C26.4958 38.2025 26.3275 38.0432 26.1947 37.8558C26.062 37.6684 25.9675 37.4567 25.9166 37.2327C25.8657 37.0088 25.8593 36.777 25.898 36.5505C25.9366 36.3241 26.0195 36.1075 26.1418 35.9132C26.2641 35.7188 26.4235 35.5505 26.6108 35.4179C26.7982 35.2852 27.0098 35.1908 27.2336 35.1401C27.4574 35.0894 27.689 35.0833 27.9152 35.1222C28.1413 35.1611 28.3576 35.2442 28.5517 35.3669L53.1777 50.8945C53.5696 51.1416 53.8473 51.5344 53.9498 51.9864C54.0524 52.4385 53.9713 52.9128 53.7245 53.3051C53.6022 53.4993 53.443 53.6675 53.2558 53.8001C53.0686 53.9328 52.8572 54.0272 52.6335 54.078C52.1819 54.1806 51.708 54.0995 51.3161 53.8524L51.3161 53.8524Z" fill="#21B7DB"/>
<path d="M77.6808 34.296C81.6989 34.296 84.9563 31.0356 84.9563 27.0137C84.9563 22.9917 81.6989 19.7313 77.6808 19.7313C73.6626 19.7313 70.4053 22.9917 70.4053 27.0137C70.4053 31.0356 73.6626 34.296 77.6808 34.296Z" fill="#21B7DB"/>
<path d="M234.105 136.249C238.123 136.249 241.38 132.989 241.38 128.967C241.38 124.945 238.123 121.684 234.105 121.684C230.086 121.684 226.829 124.945 226.829 128.967C226.829 132.989 230.086 136.249 234.105 136.249Z" fill="#21B7DB"/>
<path d="M200.047 310.94C197.013 327.486 184.157 366.265 176.387 388.964C172.844 399.334 172.553 395.43 172.553 395.43L168.515 394.156L161.705 392L159.217 391.214L156.205 390.26C156.205 390.26 154.728 363.883 154.255 344.097C154.095 337.718 153.818 333.159 153.36 332.256C151.468 328.542 154.633 328.149 157.973 327.209C161.319 326.27 158.707 324.857 157.405 321.842C156.525 319.832 158.256 317.159 159.486 315.63C159.825 315.201 160.187 314.79 160.57 314.399C160.57 314.399 152.058 311.501 142.432 308.231C142.425 308.239 142.425 308.231 142.425 308.231C141.457 307.904 140.482 307.576 139.507 307.241C142.898 306.017 145.153 305.071 145.662 304.568C148.645 301.655 149.962 304.568 151.854 307.481C153.745 310.394 154.328 307.481 156.801 305.34C159.275 303.199 164.848 306.141 164.848 306.141C164.848 306.141 164.899 304.204 164.979 301.116C165.095 296.558 165.27 289.465 165.445 282.364C165.437 282.357 165.437 282.357 165.445 282.357C165.51 279.684 165.575 277.012 165.634 274.478C170.763 278.41 175.739 282.27 180.25 285.838C180.257 285.845 180.272 285.853 180.272 285.867C191.12 294.446 199.261 301.335 200.403 303.52C200.92 304.51 200.745 307.139 200.047 310.94Z" fill="#2F2E41"/>
<path d="M130.064 249.126L127.387 250.866L120.533 255.323L111.235 261.36L61.6745 293.548C61.6745 293.548 55.5485 281.052 61.1579 270.186C61.8799 268.812 62.4671 267.37 62.9113 265.882C65.1813 258.09 60.816 254.711 60.816 254.711C60.816 254.711 53.5405 247.626 60.5177 241.093C61.951 239.753 62.7513 237.008 63.115 233.483C63.7262 227.686 63.166 219.792 62.3147 212.619C61.1652 202.897 59.4918 194.508 59.4918 194.508C59.471 188.677 60.066 182.86 61.2671 177.154C62.5985 171.008 64.7375 165.167 67.9023 160.317C69.063 158.518 70.4011 156.839 71.8966 155.307C73.9892 153.16 76.4387 151.393 79.1357 150.086C83.1809 148.134 90.1145 149.306 96.2259 150.158C97.4555 150.326 98.6487 150.486 99.7764 150.603C100.895 150.733 102.019 150.803 103.145 150.814L105.677 160.062L106.637 163.565L107.117 165.32L108.209 169.311L108.66 170.942L115.921 197.479L121.85 219.122L125.124 231.08L130.021 248.958L130.064 249.126Z" fill="#3D98CB"/>
<path d="M89.502 144.446C101.699 144.446 111.587 134.548 111.587 122.34C111.587 110.131 101.699 100.234 89.502 100.234C77.3048 100.234 67.417 110.131 67.417 122.34C67.417 134.548 77.3048 144.446 89.502 144.446Z" fill="#A0616A"/>
<path d="M85.3654 140.612L83.5664 146.37C79.5775 144.399 75.535 142.392 72.2135 139.43C68.892 136.468 66.3231 132.38 66.1658 127.931C66.0846 125.632 66.6406 123.314 66.2591 121.046C65.828 118.484 64.2479 116.262 63.5246 113.767C62.848 111.153 63.1027 108.385 64.2449 105.938C65.3871 103.492 67.3454 101.521 69.7828 100.363C73.4437 98.753 77.6299 99.205 81.6097 98.8158C85.5895 98.4266 90.0291 96.6246 91.1493 92.7823C91.5681 91.3457 91.5201 89.6519 92.8022 88.7113C93.4465 88.2802 94.2274 88.1031 94.9945 88.2141C95.7615 88.3251 96.4603 88.7163 96.9562 89.3124C98.8305 91.4423 98.3691 94.2471 97.8783 96.797C100.459 96.4597 102.941 95.5864 105.165 94.2329C107.39 92.8795 109.307 91.0758 110.794 88.9375C111.492 89.5919 112.053 90.3784 112.446 91.2514C112.839 92.1244 113.055 93.0667 113.081 94.0238C113.108 94.9808 112.945 95.9337 112.601 96.8273C112.258 97.7208 111.741 98.5374 111.08 99.2297C112.335 99.2302 113.554 98.8074 114.539 98.0296C115.524 97.2517 116.219 96.1642 116.511 94.9425C118.035 97.0496 119.6 99.247 120.09 101.802C120.58 104.356 119.67 107.378 117.329 108.508C116.135 108.981 114.853 109.191 113.57 109.125L103.757 109.311C100.839 109.367 98.0568 110.556 95.9993 112.628C93.9418 114.7 92.7702 117.492 92.7324 120.413C89.8775 120.138 86.9372 119.87 84.2376 121.073C82.98 121.603 81.9203 122.515 81.2076 123.679C79.4235 126.747 81.1936 129.935 82.7623 132.725C84.1033 135.11 85.3746 137.982 84.2618 140.482" fill="#2F2E41"/>
<path d="M186.182 365.063L145.237 350.562C144.14 350.172 143.243 349.363 142.741 348.311C142.24 347.26 142.176 346.052 142.563 344.954L161.745 290.687C162.135 289.589 162.944 288.691 163.994 288.189C165.045 287.687 166.251 287.623 167.349 288.01L208.294 302.511C209.39 302.901 210.288 303.71 210.789 304.762C211.291 305.813 211.355 307.021 210.968 308.12C210.74 328.509 203.798 346.393 191.785 362.386C191.396 363.484 190.587 364.383 189.536 364.884C188.486 365.386 187.28 365.451 186.182 365.063Z" fill="#E6E6E6"/>
<path d="M171.063 356.05L149.264 348.33C148.237 347.965 147.396 347.207 146.927 346.222C146.457 345.238 146.397 344.107 146.76 343.077L163.83 294.788C164.195 293.759 164.952 292.918 165.936 292.448C166.92 291.978 168.05 291.918 169.078 292.281L204.266 304.743C205.293 305.108 206.134 305.866 206.604 306.851C207.073 307.836 207.133 308.967 206.771 309.996C204.756 324.53 201.663 337.571 194.438 344.883C192.813 349.463 189.44 353.211 185.058 355.305C180.675 357.398 175.643 357.666 171.063 356.05Z" fill="white"/>
<path d="M162.301 318.568C162.457 318.131 162.78 317.775 163.198 317.577C163.617 317.378 164.097 317.354 164.533 317.509L191.944 327.303C192.16 327.38 192.359 327.499 192.529 327.653C192.7 327.807 192.838 327.993 192.936 328.2C193.035 328.408 193.091 328.633 193.103 328.862C193.114 329.091 193.08 329.321 193.003 329.537C192.926 329.753 192.807 329.952 192.653 330.123C192.499 330.293 192.313 330.431 192.106 330.529C191.898 330.628 191.673 330.684 191.444 330.695C191.215 330.707 190.986 330.673 190.77 330.595L163.359 320.802C162.923 320.645 162.567 320.322 162.369 319.904C162.17 319.485 162.146 319.004 162.301 318.568Z" fill="#21B7DB"/>
<path d="M186.901 317.179C187.058 316.743 187.38 316.386 187.799 316.188C188.217 315.989 188.697 315.965 189.133 316.12L195.164 318.275C195.379 318.352 195.578 318.471 195.748 318.625C195.918 318.779 196.056 318.965 196.155 319.172C196.253 319.38 196.309 319.605 196.321 319.834C196.332 320.063 196.298 320.292 196.221 320.509C196.144 320.725 196.025 320.924 195.871 321.094C195.717 321.264 195.532 321.402 195.324 321.501C195.117 321.599 194.892 321.655 194.663 321.667C194.434 321.678 194.205 321.644 193.989 321.567L187.959 319.413C187.523 319.256 187.167 318.933 186.969 318.515C186.77 318.096 186.746 317.615 186.901 317.179Z" fill="#21B7DB"/>
<path d="M157.14 333.042C157.296 332.606 157.618 332.249 158.037 332.051C158.455 331.852 158.935 331.828 159.371 331.983L186.782 341.777C186.998 341.854 187.197 341.973 187.368 342.127C187.538 342.281 187.676 342.467 187.775 342.674C187.873 342.882 187.929 343.107 187.941 343.336C187.952 343.566 187.919 343.795 187.842 344.011C187.764 344.228 187.645 344.427 187.491 344.597C187.337 344.767 187.151 344.905 186.944 345.004C186.736 345.102 186.512 345.158 186.283 345.17C186.053 345.181 185.824 345.147 185.608 345.069L158.197 335.276C157.761 335.12 157.405 334.797 157.207 334.378C157.009 333.959 156.985 333.479 157.14 333.042Z" fill="#21B7DB"/>
<path d="M159.72 325.805C159.876 325.369 160.199 325.012 160.617 324.814C161.036 324.615 161.516 324.591 161.952 324.746L189.363 334.54C189.579 334.617 189.778 334.736 189.948 334.89C190.118 335.044 190.257 335.23 190.355 335.437C190.454 335.645 190.51 335.87 190.522 336.099C190.533 336.329 190.499 336.558 190.422 336.774C190.345 336.991 190.226 337.19 190.072 337.36C189.918 337.53 189.732 337.668 189.524 337.767C189.317 337.865 189.092 337.921 188.863 337.932C188.634 337.944 188.405 337.91 188.189 337.832L160.778 328.039C160.342 327.882 159.986 327.559 159.788 327.141C159.589 326.722 159.565 326.242 159.72 325.805Z" fill="#21B7DB"/>
<path d="M173.77 288.8C173.246 287.011 172.045 285.497 170.422 284.581C168.8 283.665 166.885 283.418 165.084 283.894C164.719 283.997 164.364 284.129 164.021 284.29L127.83 251.544L119.929 266.102L161.027 294.004C161.805 295.374 163.014 296.449 164.466 297.059C165.918 297.67 167.531 297.782 169.054 297.378C169.918 297.14 170.726 296.734 171.434 296.183C172.141 295.632 172.733 294.947 173.176 294.168C173.618 293.388 173.903 292.528 174.014 291.638C174.125 290.748 174.06 289.845 173.822 288.98C173.806 288.92 173.788 288.859 173.77 288.8Z" fill="#A0616A"/>
<path d="M146.769 265.657L145.358 267.404L137.049 277.724L135.929 279.122C135.929 279.122 124.062 270.966 111.235 261.36C95.8405 249.818 79.0631 236.178 79.8125 232.019C81.1876 224.409 79.245 230.767 74.3923 228.131C69.5468 225.487 75.4836 225.203 78.1828 217.724C80.8893 210.252 77.8336 214.411 71.9768 212.226C68.0698 210.77 70.1143 177.358 71.8968 155.307C73.9894 153.16 76.4389 151.393 79.1359 150.086C83.9887 147.741 93.0176 149.904 99.7765 150.603C103.603 178.836 109.126 220.135 108.878 221.438C108.5 223.426 110.464 227.395 113.564 231.677C115.019 233.702 122.52 241.399 130.021 248.958C138.388 257.391 146.769 265.657 146.769 265.657Z" fill="#337CB1"/>
<path d="M325.151 161.717H248.12C247.901 161.717 247.685 161.675 247.483 161.591C247.281 161.508 247.098 161.386 246.943 161.231C246.788 161.077 246.666 160.893 246.582 160.691C246.498 160.489 246.455 160.273 246.455 160.054C246.455 159.836 246.498 159.619 246.582 159.417C246.666 159.215 246.788 159.032 246.943 158.877C247.098 158.723 247.281 158.6 247.483 158.517C247.685 158.434 247.901 158.391 248.12 158.391H325.151C325.59 158.392 326.012 158.568 326.323 158.88C326.634 159.191 326.808 159.614 326.808 160.054C326.808 160.495 326.634 160.917 326.323 161.229C326.012 161.54 325.59 161.716 325.151 161.717Z" fill="#21B7DB"/>
<path d="M364.145 176.918H248.12C247.901 176.919 247.685 176.876 247.483 176.793C247.281 176.709 247.098 176.587 246.943 176.432C246.788 176.278 246.666 176.095 246.582 175.893C246.498 175.691 246.455 175.474 246.455 175.256C246.455 175.037 246.498 174.82 246.582 174.618C246.666 174.416 246.788 174.233 246.943 174.079C247.098 173.924 247.281 173.802 247.483 173.718C247.685 173.635 247.901 173.592 248.12 173.593H364.145C364.585 173.594 365.006 173.769 365.317 174.081C365.628 174.393 365.802 174.815 365.802 175.256C365.802 175.696 365.628 176.118 365.317 176.43C365.006 176.742 364.585 176.917 364.145 176.918Z" fill="#F2F2F2"/>
<path d="M364.147 188.792H248.117C247.676 188.792 247.253 188.967 246.942 189.279C246.63 189.591 246.455 190.014 246.455 190.456C246.455 190.897 246.63 191.32 246.942 191.632C247.253 191.944 247.676 192.12 248.117 192.12H364.147C364.588 192.12 365.011 191.944 365.323 191.632C365.634 191.32 365.809 190.897 365.809 190.456C365.809 190.014 365.634 189.591 365.323 189.279C365.011 188.967 364.588 188.792 364.147 188.792Z" fill="#F2F2F2"/>
<path d="M364.145 207.321H248.12C247.901 207.321 247.685 207.279 247.483 207.195C247.281 207.112 247.098 206.99 246.943 206.835C246.788 206.681 246.666 206.497 246.582 206.295C246.498 206.093 246.455 205.877 246.455 205.658C246.455 205.439 246.498 205.223 246.582 205.021C246.666 204.819 246.788 204.636 246.943 204.481C247.098 204.327 247.281 204.204 247.483 204.121C247.685 204.038 247.901 203.995 248.12 203.995H364.145C364.585 203.996 365.006 204.172 365.317 204.484C365.628 204.795 365.802 205.218 365.802 205.658C365.802 206.098 365.628 206.521 365.317 206.833C365.006 207.144 364.585 207.32 364.145 207.321Z" fill="#F2F2F2"/>
</svg>
